<mxfile host="app.diagrams.net" agent="Mozilla/5.0 (Windows NT 10.0; Win64; x64) AppleWebKit/537.36 (KHTML, like Gecko) Chrome/141.0.0.0 Safari/537.36" version="28.2.7">
  <diagram name="Seite-1" id="lBMEEyc_BJLMuaJKhjvF">
    <mxGraphModel dx="2037" dy="1070" grid="1" gridSize="10" guides="1" tooltips="1" connect="1" arrows="1" fold="1" page="1" pageScale="1" pageWidth="827" pageHeight="1169" math="0" shadow="0">
      <root>
        <mxCell id="0" />
        <mxCell id="1" parent="0" />
        <mxCell id="tQHxq5KzASbdz7qVQXqO-63" value="" style="rounded=0;whiteSpace=wrap;html=1;" vertex="1" parent="1">
          <mxGeometry x="1280" y="80" width="670" height="620" as="geometry" />
        </mxCell>
        <mxCell id="tQHxq5KzASbdz7qVQXqO-61" value="" style="rounded=0;whiteSpace=wrap;html=1;" vertex="1" parent="1">
          <mxGeometry x="700" y="80" width="560" height="620" as="geometry" />
        </mxCell>
        <mxCell id="nAWwZKMb3a22kS9MdofH-3" style="edgeStyle=orthogonalEdgeStyle;rounded=0;orthogonalLoop=1;jettySize=auto;html=1;" parent="1" source="nAWwZKMb3a22kS9MdofH-1" target="nAWwZKMb3a22kS9MdofH-2" edge="1">
          <mxGeometry relative="1" as="geometry" />
        </mxCell>
        <mxCell id="nAWwZKMb3a22kS9MdofH-1" value="Analyse-App" style="rounded=1;whiteSpace=wrap;html=1;fillColor=#d5e8d4;strokeColor=#82b366;" parent="1" vertex="1">
          <mxGeometry x="340" y="145" width="110" height="40" as="geometry" />
        </mxCell>
        <mxCell id="nAWwZKMb3a22kS9MdofH-5" style="edgeStyle=orthogonalEdgeStyle;rounded=0;orthogonalLoop=1;jettySize=auto;html=1;" parent="1" source="nAWwZKMb3a22kS9MdofH-2" target="nAWwZKMb3a22kS9MdofH-4" edge="1">
          <mxGeometry relative="1" as="geometry" />
        </mxCell>
        <mxCell id="nAWwZKMb3a22kS9MdofH-2" value="Intent-Based Navigation" style="rounded=1;whiteSpace=wrap;html=1;fillColor=#d5e8d4;strokeColor=#82b366;" parent="1" vertex="1">
          <mxGeometry x="340" y="225" width="110" height="60" as="geometry" />
        </mxCell>
        <mxCell id="nAWwZKMb3a22kS9MdofH-7" style="edgeStyle=orthogonalEdgeStyle;rounded=0;orthogonalLoop=1;jettySize=auto;html=1;" parent="1" source="nAWwZKMb3a22kS9MdofH-4" target="nAWwZKMb3a22kS9MdofH-6" edge="1">
          <mxGeometry relative="1" as="geometry" />
        </mxCell>
        <mxCell id="nAWwZKMb3a22kS9MdofH-4" value="Structdescr. aufrufen ???" style="rounded=1;whiteSpace=wrap;html=1;fillColor=#f8cecc;strokeColor=#b85450;" parent="1" vertex="1">
          <mxGeometry x="340" y="325" width="110" height="60" as="geometry" />
        </mxCell>
        <mxCell id="tQHxq5KzASbdz7qVQXqO-56" style="edgeStyle=orthogonalEdgeStyle;rounded=0;orthogonalLoop=1;jettySize=auto;html=1;" edge="1" parent="1" source="nAWwZKMb3a22kS9MdofH-6" target="tQHxq5KzASbdz7qVQXqO-55">
          <mxGeometry relative="1" as="geometry" />
        </mxCell>
        <mxCell id="nAWwZKMb3a22kS9MdofH-6" value="relevante Daten" style="rounded=1;whiteSpace=wrap;html=1;fillColor=#d5e8d4;strokeColor=#82b366;" parent="1" vertex="1">
          <mxGeometry x="340" y="425" width="110" height="60" as="geometry" />
        </mxCell>
        <mxCell id="nAWwZKMb3a22kS9MdofH-8" value="" style="rounded=0;whiteSpace=wrap;html=1;" parent="1" vertex="1">
          <mxGeometry x="721" y="205" width="430" height="220" as="geometry" />
        </mxCell>
        <mxCell id="nAWwZKMb3a22kS9MdofH-9" value="1" style="rounded=0;whiteSpace=wrap;html=1;fillColor=#dae8fc;strokeColor=#6c8ebf;" parent="1" vertex="1">
          <mxGeometry x="737.5" y="225" width="80" height="30" as="geometry" />
        </mxCell>
        <mxCell id="nAWwZKMb3a22kS9MdofH-10" value="2" style="rounded=0;whiteSpace=wrap;html=1;fillColor=#dae8fc;strokeColor=#6c8ebf;" parent="1" vertex="1">
          <mxGeometry x="817.5" y="225" width="80" height="30" as="geometry" />
        </mxCell>
        <mxCell id="nAWwZKMb3a22kS9MdofH-11" value="3" style="rounded=0;whiteSpace=wrap;html=1;fillColor=#dae8fc;strokeColor=#6c8ebf;" parent="1" vertex="1">
          <mxGeometry x="897.5" y="225" width="80" height="30" as="geometry" />
        </mxCell>
        <mxCell id="nAWwZKMb3a22kS9MdofH-12" value="..." style="rounded=0;whiteSpace=wrap;html=1;fillColor=#dae8fc;strokeColor=#6c8ebf;" parent="1" vertex="1">
          <mxGeometry x="977.5" y="225" width="80" height="30" as="geometry" />
        </mxCell>
        <mxCell id="nAWwZKMb3a22kS9MdofH-13" value="n" style="rounded=0;whiteSpace=wrap;html=1;fillColor=#dae8fc;strokeColor=#6c8ebf;" parent="1" vertex="1">
          <mxGeometry x="1054.5" y="225" width="80" height="30" as="geometry" />
        </mxCell>
        <mxCell id="nAWwZKMb3a22kS9MdofH-14" value="Spalten" style="text;html=1;whiteSpace=wrap;strokeColor=#6c8ebf;fillColor=#dae8fc;align=center;verticalAlign=middle;rounded=0;" parent="1" vertex="1">
          <mxGeometry x="1181" y="225" width="60" height="30" as="geometry" />
        </mxCell>
        <mxCell id="nAWwZKMb3a22kS9MdofH-16" value="Wert" style="rounded=0;whiteSpace=wrap;html=1;fillColor=#fff2cc;strokeColor=#d6b656;" parent="1" vertex="1">
          <mxGeometry x="737.5" y="275" width="80" height="30" as="geometry" />
        </mxCell>
        <mxCell id="nAWwZKMb3a22kS9MdofH-17" value="Wert" style="rounded=0;whiteSpace=wrap;html=1;fillColor=#fff2cc;strokeColor=#d6b656;" parent="1" vertex="1">
          <mxGeometry x="817.5" y="275" width="80" height="30" as="geometry" />
        </mxCell>
        <mxCell id="nAWwZKMb3a22kS9MdofH-18" value="Wert" style="rounded=0;whiteSpace=wrap;html=1;fillColor=#fff2cc;strokeColor=#d6b656;" parent="1" vertex="1">
          <mxGeometry x="897.5" y="275" width="80" height="30" as="geometry" />
        </mxCell>
        <mxCell id="nAWwZKMb3a22kS9MdofH-21" value="..." style="rounded=0;whiteSpace=wrap;html=1;fillColor=#fff2cc;strokeColor=#d6b656;" parent="1" vertex="1">
          <mxGeometry x="977.5" y="275" width="80" height="30" as="geometry" />
        </mxCell>
        <mxCell id="nAWwZKMb3a22kS9MdofH-22" value="Wert" style="rounded=0;whiteSpace=wrap;html=1;fillColor=#fff2cc;strokeColor=#d6b656;" parent="1" vertex="1">
          <mxGeometry x="1054.5" y="275" width="80" height="30" as="geometry" />
        </mxCell>
        <mxCell id="nAWwZKMb3a22kS9MdofH-24" value="Wert" style="rounded=0;whiteSpace=wrap;html=1;fillColor=#ffe6cc;strokeColor=#d79b00;" parent="1" vertex="1">
          <mxGeometry x="741" y="305" width="76.5" height="20" as="geometry" />
        </mxCell>
        <mxCell id="nAWwZKMb3a22kS9MdofH-25" value="Wert" style="rounded=0;whiteSpace=wrap;html=1;fillColor=#ffe6cc;strokeColor=#d79b00;" parent="1" vertex="1">
          <mxGeometry x="817.5" y="305" width="80" height="20" as="geometry" />
        </mxCell>
        <mxCell id="nAWwZKMb3a22kS9MdofH-26" value="Wert" style="rounded=0;whiteSpace=wrap;html=1;fillColor=#ffe6cc;strokeColor=#d79b00;" parent="1" vertex="1">
          <mxGeometry x="897.5" y="305" width="80" height="20" as="geometry" />
        </mxCell>
        <mxCell id="nAWwZKMb3a22kS9MdofH-27" value="..." style="rounded=0;whiteSpace=wrap;html=1;fillColor=#ffe6cc;strokeColor=#d79b00;" parent="1" vertex="1">
          <mxGeometry x="977.5" y="305" width="80" height="20" as="geometry" />
        </mxCell>
        <mxCell id="nAWwZKMb3a22kS9MdofH-28" value="Wert" style="rounded=0;whiteSpace=wrap;html=1;fillColor=#ffe6cc;strokeColor=#d79b00;" parent="1" vertex="1">
          <mxGeometry x="1054.5" y="305" width="80" height="20" as="geometry" />
        </mxCell>
        <mxCell id="nAWwZKMb3a22kS9MdofH-29" value="" style="triangle;whiteSpace=wrap;html=1;rotation=90;fillColor=#ffe6cc;strokeColor=#d79b00;" parent="1" vertex="1">
          <mxGeometry x="748.5" y="282.5" width="10" height="15" as="geometry" />
        </mxCell>
        <mxCell id="nAWwZKMb3a22kS9MdofH-30" value="Tats채chlich" style="rounded=0;whiteSpace=wrap;html=1;fillColor=#fff2cc;strokeColor=#d6b656;" parent="1" vertex="1">
          <mxGeometry x="1181" y="275" width="60" height="30" as="geometry" />
        </mxCell>
        <mxCell id="nAWwZKMb3a22kS9MdofH-31" value="Erwartet" style="rounded=0;whiteSpace=wrap;html=1;fillColor=#ffe6cc;strokeColor=#d79b00;" parent="1" vertex="1">
          <mxGeometry x="1181" y="305" width="60" height="20" as="geometry" />
        </mxCell>
        <mxCell id="Tf0pKiQDm-MoqfeCtS7O-1" value="Erwartung anpassen" style="rounded=1;whiteSpace=wrap;html=1;fillColor=#ffe6cc;strokeColor=#d79b00;" parent="1" vertex="1">
          <mxGeometry x="745.5" y="175" width="115.5" height="20" as="geometry" />
        </mxCell>
        <mxCell id="Tf0pKiQDm-MoqfeCtS7O-2" value="Ergebnis anpassen" style="rounded=1;whiteSpace=wrap;html=1;fillColor=#fff2cc;strokeColor=#d6b656;" parent="1" vertex="1">
          <mxGeometry x="871" y="175" width="120" height="20" as="geometry" />
        </mxCell>
        <mxCell id="tQHxq5KzASbdz7qVQXqO-1" value="Testf채lle" style="rounded=0;whiteSpace=wrap;html=1;fillColor=#ffe6cc;strokeColor=#d79b00;" vertex="1" parent="1">
          <mxGeometry x="1030" y="960" width="93.5" height="30" as="geometry" />
        </mxCell>
        <mxCell id="tQHxq5KzASbdz7qVQXqO-2" value="Testszenarien" style="rounded=0;whiteSpace=wrap;html=1;fillColor=#dae8fc;strokeColor=#6c8ebf;" vertex="1" parent="1">
          <mxGeometry x="925" y="930" width="120" height="60" as="geometry" />
        </mxCell>
        <mxCell id="tQHxq5KzASbdz7qVQXqO-3" value="Testbereiche" style="rounded=0;whiteSpace=wrap;html=1;labelPosition=center;verticalLabelPosition=middle;align=center;verticalAlign=middle;fillColor=#d5e8d4;strokeColor=#82b366;" vertex="1" parent="1">
          <mxGeometry x="810" y="910" width="136.5" height="80" as="geometry" />
        </mxCell>
        <mxCell id="tQHxq5KzASbdz7qVQXqO-4" value="sind protokollabh채ngig (Testl채ufe)" style="rounded=0;whiteSpace=wrap;html=1;fillColor=#e1d5e7;strokeColor=#9673a6;" vertex="1" parent="1">
          <mxGeometry x="810" y="1060" width="310" height="40" as="geometry" />
        </mxCell>
        <mxCell id="tQHxq5KzASbdz7qVQXqO-6" value="" style="shape=flexArrow;endArrow=classic;html=1;rounded=0;" edge="1" parent="1">
          <mxGeometry width="50" height="50" relative="1" as="geometry">
            <mxPoint x="970" y="1000" as="sourcePoint" />
            <mxPoint x="970" y="1050" as="targetPoint" />
            <Array as="points">
              <mxPoint x="970" y="1020" />
            </Array>
          </mxGeometry>
        </mxCell>
        <mxCell id="tQHxq5KzASbdz7qVQXqO-7" value="Testfall-ID, Tabalias und Protokoll-ID mitgeben" style="text;html=1;whiteSpace=wrap;strokeColor=none;fillColor=none;align=center;verticalAlign=middle;rounded=0;" vertex="1" parent="1">
          <mxGeometry x="450" y="235" width="120" height="40" as="geometry" />
        </mxCell>
        <mxCell id="tQHxq5KzASbdz7qVQXqO-13" value="1.1" style="rounded=0;whiteSpace=wrap;html=1;" vertex="1" parent="1">
          <mxGeometry x="1300" y="240" width="120" height="40" as="geometry" />
        </mxCell>
        <mxCell id="tQHxq5KzASbdz7qVQXqO-14" value="1.2" style="rounded=0;whiteSpace=wrap;html=1;" vertex="1" parent="1">
          <mxGeometry x="1300" y="280" width="120" height="40" as="geometry" />
        </mxCell>
        <mxCell id="tQHxq5KzASbdz7qVQXqO-15" value="1.3" style="rounded=0;whiteSpace=wrap;html=1;" vertex="1" parent="1">
          <mxGeometry x="1300" y="320" width="120" height="40" as="geometry" />
        </mxCell>
        <mxCell id="tQHxq5KzASbdz7qVQXqO-16" value="1.4" style="rounded=0;whiteSpace=wrap;html=1;" vertex="1" parent="1">
          <mxGeometry x="1300" y="360" width="120" height="40" as="geometry" />
        </mxCell>
        <mxCell id="tQHxq5KzASbdz7qVQXqO-17" value="1.5" style="rounded=0;whiteSpace=wrap;html=1;" vertex="1" parent="1">
          <mxGeometry x="1300" y="400" width="120" height="40" as="geometry" />
        </mxCell>
        <mxCell id="tQHxq5KzASbdz7qVQXqO-18" value="2.1" style="rounded=0;whiteSpace=wrap;html=1;" vertex="1" parent="1">
          <mxGeometry x="1300" y="440" width="120" height="40" as="geometry" />
        </mxCell>
        <mxCell id="tQHxq5KzASbdz7qVQXqO-19" value="2.2" style="rounded=0;whiteSpace=wrap;html=1;" vertex="1" parent="1">
          <mxGeometry x="1300" y="480" width="120" height="40" as="geometry" />
        </mxCell>
        <mxCell id="tQHxq5KzASbdz7qVQXqO-20" value="2.3" style="rounded=0;whiteSpace=wrap;html=1;" vertex="1" parent="1">
          <mxGeometry x="1300" y="520" width="120" height="40" as="geometry" />
        </mxCell>
        <mxCell id="tQHxq5KzASbdz7qVQXqO-21" value="2.4" style="rounded=0;whiteSpace=wrap;html=1;" vertex="1" parent="1">
          <mxGeometry x="1300" y="560" width="120" height="40" as="geometry" />
        </mxCell>
        <mxCell id="tQHxq5KzASbdz7qVQXqO-22" value="2.5" style="rounded=0;whiteSpace=wrap;html=1;" vertex="1" parent="1">
          <mxGeometry x="1300" y="600" width="120" height="40" as="geometry" />
        </mxCell>
        <mxCell id="tQHxq5KzASbdz7qVQXqO-23" value="/SMRT/PROTVALUES" style="rounded=0;whiteSpace=wrap;html=1;fillColor=#e1d5e7;strokeColor=#9673a6;" vertex="1" parent="1">
          <mxGeometry x="1300" y="200" width="120" height="40" as="geometry" />
        </mxCell>
        <mxCell id="tQHxq5KzASbdz7qVQXqO-24" value="1" style="rounded=0;whiteSpace=wrap;html=1;fillColor=#dae8fc;strokeColor=#6c8ebf;" vertex="1" parent="1">
          <mxGeometry x="1510" y="200" width="80" height="30" as="geometry" />
        </mxCell>
        <mxCell id="tQHxq5KzASbdz7qVQXqO-25" value="2" style="rounded=0;whiteSpace=wrap;html=1;fillColor=#dae8fc;strokeColor=#6c8ebf;" vertex="1" parent="1">
          <mxGeometry x="1590" y="200" width="80" height="30" as="geometry" />
        </mxCell>
        <mxCell id="tQHxq5KzASbdz7qVQXqO-26" value="3" style="rounded=0;whiteSpace=wrap;html=1;fillColor=#dae8fc;strokeColor=#6c8ebf;" vertex="1" parent="1">
          <mxGeometry x="1670" y="200" width="80" height="30" as="geometry" />
        </mxCell>
        <mxCell id="tQHxq5KzASbdz7qVQXqO-27" value="4" style="rounded=0;whiteSpace=wrap;html=1;fillColor=#dae8fc;strokeColor=#6c8ebf;" vertex="1" parent="1">
          <mxGeometry x="1750" y="200" width="80" height="30" as="geometry" />
        </mxCell>
        <mxCell id="tQHxq5KzASbdz7qVQXqO-28" value="5" style="rounded=0;whiteSpace=wrap;html=1;fillColor=#dae8fc;strokeColor=#6c8ebf;" vertex="1" parent="1">
          <mxGeometry x="1827" y="200" width="80" height="30" as="geometry" />
        </mxCell>
        <mxCell id="tQHxq5KzASbdz7qVQXqO-29" value="1.1" style="rounded=0;whiteSpace=wrap;html=1;fillColor=#fff2cc;strokeColor=#d6b656;" vertex="1" parent="1">
          <mxGeometry x="1510" y="250" width="80" height="30" as="geometry" />
        </mxCell>
        <mxCell id="tQHxq5KzASbdz7qVQXqO-30" value="1.2" style="rounded=0;whiteSpace=wrap;html=1;fillColor=#fff2cc;strokeColor=#d6b656;" vertex="1" parent="1">
          <mxGeometry x="1590" y="250" width="80" height="30" as="geometry" />
        </mxCell>
        <mxCell id="tQHxq5KzASbdz7qVQXqO-31" value="1.3" style="rounded=0;whiteSpace=wrap;html=1;fillColor=#fff2cc;strokeColor=#d6b656;" vertex="1" parent="1">
          <mxGeometry x="1670" y="250" width="80" height="30" as="geometry" />
        </mxCell>
        <mxCell id="tQHxq5KzASbdz7qVQXqO-32" value="1.4" style="rounded=0;whiteSpace=wrap;html=1;fillColor=#fff2cc;strokeColor=#d6b656;" vertex="1" parent="1">
          <mxGeometry x="1750" y="250" width="80" height="30" as="geometry" />
        </mxCell>
        <mxCell id="tQHxq5KzASbdz7qVQXqO-33" value="1.5" style="rounded=0;whiteSpace=wrap;html=1;fillColor=#fff2cc;strokeColor=#d6b656;" vertex="1" parent="1">
          <mxGeometry x="1827" y="250" width="80" height="30" as="geometry" />
        </mxCell>
        <mxCell id="tQHxq5KzASbdz7qVQXqO-34" value="1.1" style="rounded=0;whiteSpace=wrap;html=1;fillColor=#ffe6cc;strokeColor=#d79b00;" vertex="1" parent="1">
          <mxGeometry x="1513.5" y="280" width="76.5" height="20" as="geometry" />
        </mxCell>
        <mxCell id="tQHxq5KzASbdz7qVQXqO-35" value="1.2" style="rounded=0;whiteSpace=wrap;html=1;fillColor=#ffe6cc;strokeColor=#d79b00;" vertex="1" parent="1">
          <mxGeometry x="1590" y="280" width="80" height="20" as="geometry" />
        </mxCell>
        <mxCell id="tQHxq5KzASbdz7qVQXqO-36" value="1.3" style="rounded=0;whiteSpace=wrap;html=1;fillColor=#ffe6cc;strokeColor=#d79b00;" vertex="1" parent="1">
          <mxGeometry x="1670" y="280" width="80" height="20" as="geometry" />
        </mxCell>
        <mxCell id="tQHxq5KzASbdz7qVQXqO-37" value="1.4" style="rounded=0;whiteSpace=wrap;html=1;fillColor=#ffe6cc;strokeColor=#d79b00;" vertex="1" parent="1">
          <mxGeometry x="1750" y="280" width="80" height="20" as="geometry" />
        </mxCell>
        <mxCell id="tQHxq5KzASbdz7qVQXqO-38" value="1.5" style="rounded=0;whiteSpace=wrap;html=1;fillColor=#ffe6cc;strokeColor=#d79b00;" vertex="1" parent="1">
          <mxGeometry x="1827" y="280" width="80" height="20" as="geometry" />
        </mxCell>
        <mxCell id="tQHxq5KzASbdz7qVQXqO-39" value="" style="triangle;whiteSpace=wrap;html=1;rotation=90;fillColor=#ffe6cc;strokeColor=#d79b00;" vertex="1" parent="1">
          <mxGeometry x="1521" y="257.5" width="10" height="15" as="geometry" />
        </mxCell>
        <mxCell id="tQHxq5KzASbdz7qVQXqO-40" value="2.1" style="rounded=0;whiteSpace=wrap;html=1;fillColor=#fff2cc;strokeColor=#d6b656;" vertex="1" parent="1">
          <mxGeometry x="1510" y="315" width="80" height="30" as="geometry" />
        </mxCell>
        <mxCell id="tQHxq5KzASbdz7qVQXqO-41" value="2.2" style="rounded=0;whiteSpace=wrap;html=1;fillColor=#fff2cc;strokeColor=#d6b656;" vertex="1" parent="1">
          <mxGeometry x="1590" y="315" width="80" height="30" as="geometry" />
        </mxCell>
        <mxCell id="tQHxq5KzASbdz7qVQXqO-42" value="2.3" style="rounded=0;whiteSpace=wrap;html=1;fillColor=#fff2cc;strokeColor=#d6b656;" vertex="1" parent="1">
          <mxGeometry x="1670" y="315" width="80" height="30" as="geometry" />
        </mxCell>
        <mxCell id="tQHxq5KzASbdz7qVQXqO-43" value="2.4" style="rounded=0;whiteSpace=wrap;html=1;fillColor=#fff2cc;strokeColor=#d6b656;" vertex="1" parent="1">
          <mxGeometry x="1750" y="315" width="80" height="30" as="geometry" />
        </mxCell>
        <mxCell id="tQHxq5KzASbdz7qVQXqO-44" value="2.5" style="rounded=0;whiteSpace=wrap;html=1;fillColor=#fff2cc;strokeColor=#d6b656;" vertex="1" parent="1">
          <mxGeometry x="1827" y="315" width="80" height="30" as="geometry" />
        </mxCell>
        <mxCell id="tQHxq5KzASbdz7qVQXqO-45" value="2.1" style="rounded=0;whiteSpace=wrap;html=1;fillColor=#ffe6cc;strokeColor=#d79b00;" vertex="1" parent="1">
          <mxGeometry x="1513.5" y="345" width="76.5" height="20" as="geometry" />
        </mxCell>
        <mxCell id="tQHxq5KzASbdz7qVQXqO-46" value="2.2" style="rounded=0;whiteSpace=wrap;html=1;fillColor=#ffe6cc;strokeColor=#d79b00;" vertex="1" parent="1">
          <mxGeometry x="1590" y="345" width="80" height="20" as="geometry" />
        </mxCell>
        <mxCell id="tQHxq5KzASbdz7qVQXqO-47" value="2.3" style="rounded=0;whiteSpace=wrap;html=1;fillColor=#ffe6cc;strokeColor=#d79b00;" vertex="1" parent="1">
          <mxGeometry x="1670" y="345" width="80" height="20" as="geometry" />
        </mxCell>
        <mxCell id="tQHxq5KzASbdz7qVQXqO-48" value="2.4" style="rounded=0;whiteSpace=wrap;html=1;fillColor=#ffe6cc;strokeColor=#d79b00;" vertex="1" parent="1">
          <mxGeometry x="1750" y="345" width="80" height="20" as="geometry" />
        </mxCell>
        <mxCell id="tQHxq5KzASbdz7qVQXqO-49" value="2.5" style="rounded=0;whiteSpace=wrap;html=1;fillColor=#ffe6cc;strokeColor=#d79b00;" vertex="1" parent="1">
          <mxGeometry x="1827" y="345" width="80" height="20" as="geometry" />
        </mxCell>
        <mxCell id="tQHxq5KzASbdz7qVQXqO-50" value="" style="triangle;whiteSpace=wrap;html=1;rotation=90;fillColor=#ffe6cc;strokeColor=#d79b00;" vertex="1" parent="1">
          <mxGeometry x="1521" y="322.5" width="10" height="15" as="geometry" />
        </mxCell>
        <mxCell id="tQHxq5KzASbdz7qVQXqO-51" value="" style="shape=flexArrow;endArrow=classic;html=1;rounded=0;fillColor=#f8cecc;strokeColor=#b85450;" edge="1" parent="1">
          <mxGeometry width="50" height="50" relative="1" as="geometry">
            <mxPoint x="1430" y="315" as="sourcePoint" />
            <mxPoint x="1490" y="315" as="targetPoint" />
          </mxGeometry>
        </mxCell>
        <mxCell id="tQHxq5KzASbdz7qVQXqO-53" value="&lt;b&gt;&lt;u&gt;Aufbau / Ziel&lt;/u&gt;&lt;/b&gt;" style="text;html=1;whiteSpace=wrap;strokeColor=none;fillColor=none;align=center;verticalAlign=middle;rounded=0;fontSize=40;" vertex="1" parent="1">
          <mxGeometry x="840" y="90" width="260" height="70" as="geometry" />
        </mxCell>
        <mxCell id="tQHxq5KzASbdz7qVQXqO-54" value="Anhand von Protokoll- &amp;amp; Testfall-ID" style="text;html=1;whiteSpace=wrap;strokeColor=none;fillColor=none;align=center;verticalAlign=middle;rounded=0;" vertex="1" parent="1">
          <mxGeometry x="450" y="440" width="120" height="40" as="geometry" />
        </mxCell>
        <mxCell id="tQHxq5KzASbdz7qVQXqO-55" value="" style="rounded=1;whiteSpace=wrap;html=1;fillColor=#d5e8d4;strokeColor=#82b366;" vertex="1" parent="1">
          <mxGeometry x="340" y="525" width="110" height="60" as="geometry" />
        </mxCell>
        <mxCell id="tQHxq5KzASbdz7qVQXqO-57" value="NICHT versionsabh채ngig! Versionen sind einfach nur eine Versionsverwaltung vom Testfall selber" style="text;html=1;whiteSpace=wrap;strokeColor=none;fillColor=none;align=center;verticalAlign=middle;rounded=0;" vertex="1" parent="1">
          <mxGeometry x="858.5" y="1100" width="213" height="50" as="geometry" />
        </mxCell>
        <mxCell id="tQHxq5KzASbdz7qVQXqO-60" value="" style="group" vertex="1" connectable="0" parent="1">
          <mxGeometry x="1410" y="740" width="410" height="260" as="geometry" />
        </mxCell>
        <mxCell id="tQHxq5KzASbdz7qVQXqO-58" value="" style="rounded=0;whiteSpace=wrap;html=1;" vertex="1" parent="tQHxq5KzASbdz7qVQXqO-60">
          <mxGeometry width="410" height="260" as="geometry" />
        </mxCell>
        <mxCell id="tQHxq5KzASbdz7qVQXqO-59" value="Tabelle" style="text;html=1;whiteSpace=wrap;strokeColor=none;fillColor=none;align=center;verticalAlign=middle;rounded=0;" vertex="1" parent="tQHxq5KzASbdz7qVQXqO-60">
          <mxGeometry x="167" y="10" width="60" height="30" as="geometry" />
        </mxCell>
        <mxCell id="tQHxq5KzASbdz7qVQXqO-62" value="&lt;b&gt;&lt;u&gt;&lt;font style=&quot;color: rgb(255, 0, 0);&quot;&gt;Problem&lt;/font&gt;&lt;/u&gt;&lt;/b&gt;" style="text;html=1;whiteSpace=wrap;strokeColor=none;fillColor=none;align=center;verticalAlign=middle;rounded=0;fontSize=40;" vertex="1" parent="1">
          <mxGeometry x="1450" y="90" width="260" height="70" as="geometry" />
        </mxCell>
      </root>
    </mxGraphModel>
  </diagram>
</mxfile>
